HIERARCHY
ROOT Hips
{
	OFFSET -0.001795 -0.223333 0.028219
	CHANNELS 6 Xposition Yposition Zposition Zrotation Yrotation Xrotation 
	JOINT LeftUpLeg
	{
		OFFSET 0.069520 -0.091406 -0.006815
		CHANNELS 3 Zrotation Yrotation Xrotation
		JOINT LeftLeg
		{
			OFFSET 0.034277 -0.375199 -0.004496
			CHANNELS 3 Zrotation Yrotation Xrotation
			JOINT LeftFoot
			{
				OFFSET -0.013596 -0.397961 -0.043693
				CHANNELS 3 Zrotation Yrotation Xrotation
				JOINT LeftToe
				{
					OFFSET 0.026358 -0.055791 0.119288
					CHANNELS 3 Zrotation Yrotation Xrotation
					End Site
					{
						OFFSET 0.000000 0.000000 0.000000
					}
				}
			}
		}
	}
	JOINT RightUpLeg
	{
		OFFSET -0.067670 -0.090522 -0.004320
		CHANNELS 3 Zrotation Yrotation Xrotation
		JOINT RightLeg
		{
			OFFSET -0.038290 -0.382569 -0.008850
			CHANNELS 3 Zrotation Yrotation Xrotation
			JOINT RightFoot
			{
				OFFSET 0.015774 -0.398415 -0.042312
				CHANNELS 3 Zrotation Yrotation Xrotation
				JOINT RightToe
				{
					OFFSET -0.025372 -0.048144 0.123348
					CHANNELS 3 Zrotation Yrotation Xrotation
					End Site
					{
						OFFSET 0.000000 0.000000 0.000000
					}
				}
			}
		}
	}
	JOINT Spine
	{
		OFFSET -0.002533 0.108963 -0.026696
		CHANNELS 3 Zrotation Yrotation Xrotation
		JOINT Spine1
		{
			OFFSET 0.005487 0.135180 0.001092
			CHANNELS 3 Zrotation Yrotation Xrotation
			JOINT Spine2
			{
				OFFSET 0.001457 0.052922 0.025425
				CHANNELS 3 Zrotation Yrotation Xrotation
				JOINT Neck
				{
					OFFSET -0.002778 0.213870 -0.042857
					CHANNELS 3 Zrotation Yrotation Xrotation
					JOINT Head
					{
						OFFSET 0.005152 0.064970 0.051349
						CHANNELS 3 Zrotation Yrotation Xrotation
						End Site
						{
							OFFSET 0.000000 0.000000 0.000000
						}
					}
				}
				JOINT LeftShoulder
				{
					OFFSET 0.078845 0.121749 -0.034090
					CHANNELS 3 Zrotation Yrotation Xrotation
					JOINT LeftArm
					{
						OFFSET 0.090977 0.030469 -0.008868
						CHANNELS 3 Zrotation Yrotation Xrotation
						JOINT LeftForeArm
						{
							OFFSET 0.259612 -0.012772 -0.027456
							CHANNELS 3 Zrotation Yrotation Xrotation
							JOINT LeftHand
							{
								OFFSET 0.249234 0.008986 -0.001171
								CHANNELS 3 Zrotation Yrotation Xrotation
								End Site
								{
									OFFSET 0.000000 0.000000 0.000000
								}
							}
						}
					}
				}
				JOINT RightShoulder
				{
					OFFSET -0.081759 0.118833 -0.038615
					CHANNELS 3 Zrotation Yrotation Xrotation
					JOINT RightArm
					{
						OFFSET -0.096012 0.032551 -0.009143
						CHANNELS 3 Zrotation Yrotation Xrotation
						JOINT RightForeArm
						{
							OFFSET -0.253742 -0.013329 -0.021401
							CHANNELS 3 Zrotation Yrotation Xrotation
							JOINT RightHand
							{
								OFFSET -0.255298 0.007772 -0.005559
								CHANNELS 3 Zrotation Yrotation Xrotation
								End Site
								{
									OFFSET 0.000000 0.000000 0.000000
								}
							}
						}
					}
				}
			}
		}
	}
}
MOTION
Frames: 14
Frame Time: 0.050000
0.000000 0.846847 0.000000 -1.740224 1.784441 16.824989 6.793440 -2.370259 -55.023269 -7.590112 2.115725 40.203174 5.106262 10.638134 -2.373974 0.000000 0.000000 0.000000 -10.379773 0.689366 -36.608150 7.959839 -3.622083 53.713762 -6.303473 -15.073405 -9.461736 0.000000 0.000000 0.000000 -7.522824 1.149267 44.277938 6.522143 -0.634275 -25.451238 1.497596 2.191497 26.264403 -8.251165 6.010792 -34.274461 0.000000 0.000000 0.000000 -20.090433 -26.857444 13.622789 -47.682825 -45.975104 11.300124 -23.757280 -52.924053 15.438458 0.000000 0.000000 0.000000 11.400056 27.012229 13.204736 46.940884 28.164833 4.465102 -4.938373 41.243389 0.373146 0.000000 0.000000 0.000000 
0.005995 0.845207 0.020522 -2.133236 1.647370 17.777470 7.519898 -2.005741 -55.997858 -7.963503 2.483397 43.445432 3.541259 7.353082 -1.512655 0.000000 0.000000 0.000000 -11.117752 0.509973 -38.375335 7.861607 -3.757744 56.807336 -5.156135 -12.047881 -6.378247 0.000000 0.000000 0.000000 -7.097398 0.997759 43.119907 5.879845 -0.498634 -25.345120 1.031775 0.990912 24.988510 -10.282957 6.496765 -36.853459 0.000000 0.000000 0.000000 -24.011540 -25.669282 14.171530 -45.445760 -41.704824 8.709337 -31.242443 -55.061420 20.589725 0.000000 0.000000 0.000000 12.838555 27.343980 13.561470 47.310309 24.680239 3.202035 -3.680881 43.009588 0.802544 0.000000 0.000000 0.000000 
0.010735 0.845117 0.039258 -2.183639 1.550105 17.012515 7.061145 -2.159305 -55.095065 -7.195402 2.123408 44.742260 4.123753 7.617429 -4.745496 0.000000 0.000000 0.000000 -11.967652 0.253059 -38.977513 9.553787 -5.317552 60.949998 -5.090162 -12.207805 -4.441855 0.000000 0.000000 0.000000 -6.531520 0.743951 43.560390 5.361118 -0.379587 -25.515822 1.156456 1.444848 23.978744 -9.168432 6.432634 -30.923286 0.000000 0.000000 0.000000 -28.153071 -26.913228 15.659865 -42.276666 -39.845574 7.192776 -29.668479 -51.554880 17.981497 0.000000 0.000000 0.000000 15.926324 27.564849 14.530324 44.382743 22.125852 1.851538 -1.833547 41.136500 1.281841 0.000000 0.000000 0.000000 
0.013316 0.846501 0.055463 -3.117007 1.499642 17.179570 8.071430 -1.631299 -54.998896 -7.367228 2.320556 46.545499 3.427911 5.516181 -5.832320 0.000000 0.000000 0.000000 -13.906585 -0.383472 -41.537000 10.685393 -6.458452 63.036553 -4.382079 -10.988343 -1.302127 0.000000 0.000000 0.000000 -7.239265 1.072982 43.039427 6.773450 -0.658862 -25.416969 1.049675 1.557989 23.031999 -10.932923 7.047330 -33.542573 0.000000 0.000000 0.000000 -29.879576 -25.798725 15.182356 -41.867579 -38.156967 6.532862 -31.108365 -49.730651 17.903909 0.000000 0.000000 0.000000 18.126379 27.414640 15.035158 41.968021 18.983858 0.587651 0.504582 40.510577 1.982768 0.000000 0.000000 0.000000 
0.012604 0.847780 0.068827 -3.357325 2.445453 16.866895 8.262345 -1.779488 -54.205805 -7.860956 2.457852 47.205983 4.048873 7.033388 -5.919058 0.000000 0.000000 0.000000 -16.935830 -1.480286 -40.383704 12.963149 -8.037797 58.950956 -5.307039 -13.587412 0.129508 0.000000 0.000000 0.000000 -6.957074 0.758818 42.628654 7.548207 -0.802453 -25.487111 1.189212 0.520964 23.687195 -12.366481 7.603914 -33.839828 0.000000 0.000000 0.000000 -32.587339 -25.151464 15.571918 -39.030518 -36.644481 5.175869 -29.171474 -49.332189 16.744995 0.000000 0.000000 0.000000 19.684303 26.789117 14.870654 39.966689 17.555751 -0.060732 1.109609 39.678274 2.073257 0.000000 0.000000 0.000000 
0.008385 0.848950 0.078790 -4.218479 1.585051 17.274242 9.499039 -0.933622 -53.738265 -7.701992 2.571986 47.253870 3.746720 5.830570 -7.120429 0.000000 0.000000 0.000000 -18.342066 -1.778413 -41.187645 13.705608 -7.438665 53.191297 -6.095630 -15.405998 -2.374786 0.000000 0.000000 0.000000 -5.850511 0.418023 42.611138 6.504597 -0.448093 -27.409240 1.640536 0.006343 25.385330 -13.817371 7.986243 -35.837172 0.000000 0.000000 0.000000 -32.120875 -24.147074 15.262838 -38.484281 -36.655393 4.750395 -30.070368 -49.725267 17.500343 0.000000 0.000000 0.000000 20.463614 26.643333 14.715165 38.610449 16.645133 -0.483151 0.640808 41.775677 1.993185 0.000000 0.000000 0.000000 
0.000315 0.849408 0.086359 -4.651675 0.316677 18.271844 11.273776 0.249122 -53.537570 -8.026401 3.006535 46.407950 4.072175 5.856850 -9.423412 0.000000 0.000000 0.000000 -19.504594 -2.011210 -43.160308 12.848134 -5.700799 46.286334 -6.351661 -16.443651 -0.137902 0.000000 0.000000 0.000000 -5.508428 0.511172 41.751236 6.912199 -0.551713 -27.138690 1.658552 1.044530 24.497084 -12.941816 7.623789 -35.668181 0.000000 0.000000 0.000000 -32.501015 -23.017770 14.304085 -37.570984 -35.646007 4.325048 -31.956120 -48.807432 18.018685 0.000000 0.000000 0.000000 20.936266 25.536322 14.344784 37.883752 17.554438 -0.251350 -0.895529 41.754516 1.497981 0.000000 0.000000 0.000000 
-0.011129 0.848106 0.092101 -4.352356 -0.186777 19.267427 11.935147 0.704704 -54.015373 -7.910187 3.079587 46.675312 4.050676 5.639464 -9.943755 0.000000 0.000000 0.000000 -20.131154 -2.170657 -44.217448 11.616934 -4.420729 41.201718 -5.603554 -14.791613 0.829304 0.000000 0.000000 0.000000 -4.325769 0.081604 41.960712 6.318426 -0.335093 -28.386430 0.994925 0.723097 24.766431 -11.629573 7.062573 -34.771627 0.000000 0.000000 0.000000 -32.287664 -21.862301 13.728177 -36.158397 -34.578397 3.584315 -32.660137 -48.879664 18.435882 0.000000 0.000000 0.000000 21.389923 25.157405 14.068017 36.627780 18.077034 -0.169238 -2.190444 42.749945 1.026481 0.000000 0.000000 0.000000 
-0.025606 0.845987 0.097494 -3.781762 -1.114103 19.431505 12.405464 1.173796 -54.072797 -8.039601 3.376173 47.433390 3.994598 5.478055 -10.040957 0.000000 0.000000 0.000000 -20.152797 -2.040318 -45.056331 11.293200 -4.090781 40.927738 -4.740559 -12.855009 1.675981 0.000000 0.000000 0.000000 -4.132970 0.153370 42.540379 5.128475 -0.146646 -28.346684 1.710886 1.052439 23.608460 -10.709900 6.634281 -34.348218 0.000000 0.000000 0.000000 -32.083140 -21.673016 13.523368 -35.140611 -34.072940 3.349166 -30.573639 -47.542094 16.752797 0.000000 0.000000 0.000000 21.274500 25.601747 14.255024 36.107097 19.233153 0.234520 -4.035045 43.210076 0.338098 0.000000 0.000000 0.000000 
-0.042240 0.843554 0.102735 -3.165479 -1.128394 18.959838 13.406018 1.587204 -53.563976 -8.078632 3.452070 47.962576 3.450701 4.114783 -9.688828 0.000000 0.000000 0.000000 -20.035760 -2.088191 -45.603126 10.918034 -4.045752 42.659920 -4.407748 -12.201240 2.717990 0.000000 0.000000 0.000000 -3.661925 -0.066003 42.598008 4.798294 -0.140215 -27.679320 1.894476 1.519500 23.322577 -10.290574 6.482133 -34.814265 0.000000 0.000000 0.000000 -31.380354 -21.572903 13.064775 -35.823704 -32.855587 3.214695 -27.601330 -48.793940 15.707530 0.000000 0.000000 0.000000 21.363099 25.971994 14.635388 35.271016 20.266102 0.436402 -7.627370 43.830941 -0.989652 0.000000 0.000000 0.000000 
-0.060291 0.842594 0.107748 -2.609211 -1.515330 18.460045 13.982483 1.883285 -52.554864 -7.692409 3.318847 48.165350 3.037361 2.728840 -10.231970 0.000000 0.000000 0.000000 -19.932450 -1.970042 -45.306356 11.365101 -4.289724 43.629765 -4.846703 -13.162062 2.203627 0.000000 0.000000 0.000000 -3.161006 -0.237156 42.969315 4.153633 -0.018970 -27.987954 2.534439 1.759305 24.017569 -9.856215 6.328443 -34.865979 0.000000 0.000000 0.000000 -30.458077 -22.120934 13.264751 -36.083575 -33.393928 3.382064 -23.250424 -49.080095 13.663567 0.000000 0.000000 0.000000 19.493634 26.992775 14.772355 35.396069 21.755480 0.831240 -10.032602 43.559564 -1.905197 0.000000 0.000000 0.000000 
-0.079187 0.843508 0.111558 -1.985437 -1.085491 18.073869 15.002865 2.124053 -51.587807 -8.137125 3.454756 47.309992 2.332342 1.432199 -8.870498 0.000000 0.000000 0.000000 -19.150080 -1.830001 -45.217249 11.468951 -4.567376 45.330531 -5.039085 -13.301787 0.553706 0.000000 0.000000 0.000000 -2.499695 -0.630275 43.087384 4.612540 -0.132849 -27.398895 2.637719 1.911250 22.950793 -9.883566 6.417968 -33.926395 0.000000 0.000000 0.000000 -31.523880 -22.351129 13.439148 -35.535609 -32.683511 3.199024 -21.545182 -48.635676 12.634394 0.000000 0.000000 0.000000 19.541123 27.665931 15.223532 34.293717 22.507841 1.004468 -9.331770 43.917500 -1.679054 0.000000 0.000000 0.000000 
-0.098514 0.845756 0.114055 -1.456274 -1.169666 18.182640 15.970743 2.450163 -50.320194 -8.736055 3.716320 45.663303 2.048343 0.951164 -8.347006 0.000000 0.000000 0.000000 -18.624119 -1.629701 -45.120630 12.061656 -4.927553 45.882569 -5.303101 -13.778276 -0.647862 0.000000 0.000000 0.000000 -1.723295 -0.981457 43.243196 4.033779 -0.022792 -27.588655 2.967815 1.648126 22.888198 -9.837903 6.299844 -34.637647 0.000000 0.000000 0.000000 -30.465716 -22.802987 13.711512 -36.413125 -34.084187 3.781477 -17.904319 -47.964498 10.770612 0.000000 0.000000 0.000000 18.177840 27.932233 14.926265 34.986216 23.316963 1.333127 -9.824135 44.352164 -1.880339 0.000000 0.000000 0.000000 
-0.117346 0.847772 0.115303 -0.912612 -0.632069 18.428790 17.166415 2.668422 -49.045453 -9.508681 3.871136 43.105543 2.005550 1.638088 -6.734268 0.000000 0.000000 0.000000 -17.827215 -1.537091 -45.855882 12.409729 -5.324165 46.777986 -5.624997 -14.391724 -2.022802 0.000000 0.000000 0.000000 -0.603985 -1.610706 43.216528 4.118312 0.002534 -28.167374 2.807353 1.498900 22.785503 -9.248114 6.056193 -34.419304 0.000000 0.000000 0.000000 -31.202048 -23.334767 14.234899 -36.367954 -33.805458 3.706028 -16.317122 -46.368485 9.639964 0.000000 0.000000 0.000000 18.043661 28.117961 15.015513 34.172081 23.313909 1.261927 -7.436976 45.864074 -1.005214 0.000000 0.000000 0.000000 
